<svg id="svg" xmlns="http://www.w3.org/2000/svg" xmlns:xlink="http://www.w3.org/1999/xlink" width="400" height="277.5862068965517" viewBox="0, 0, 400,277.5862068965517"><g id="svgg"><path id="path0" d="M309.300 4.206 C 306.647 18.603,299.721 26.749,286.526 30.993 C 281.644 32.563,280.374 33.507,282.759 33.793 C 287.081 34.313,297.477 38.623,296.851 39.636 C 296.676 39.919,296.836 40.338,297.206 40.566 C 297.626 40.826,297.725 40.733,297.469 40.319 C 296.674 39.033,298.080 39.675,299.652 41.316 C 300.819 42.534,301.039 43.066,300.478 43.311 C 300.046 43.499,300.193 43.589,300.815 43.518 C 302.380 43.338,305.898 47.993,305.439 49.636 C 305.202 50.487,305.260 50.628,305.628 50.097 C 306.401 48.984,308.486 54.501,309.483 60.296 C 310.201 64.474,311.190 63.991,311.688 59.219 C 312.986 46.809,321.707 37.272,334.652 34.109 C 339.126 33.016,339.051 32.737,333.908 31.340 C 321.217 27.892,314.110 19.460,311.477 4.726 C 310.567 -0.369,310.160 -0.466,309.300 4.206 M353.380 43.206 C 353.343 43.624,353.360 44.315,353.419 44.742 C 353.571 45.850,351.233 53.329,349.947 55.851 C 347.283 61.072,335.463 68.566,333.867 66.045 C 333.469 65.416,333.349 65.512,333.342 66.466 C 333.335 67.476,333.858 67.827,336.206 68.390 C 337.785 68.769,338.975 69.248,338.848 69.454 C 338.722 69.659,339.357 69.855,340.259 69.887 C 342.181 69.957,345.014 71.647,344.529 72.432 C 344.344 72.731,344.530 72.846,344.941 72.689 C 345.867 72.334,349.004 75.148,348.533 75.911 C 348.345 76.216,348.511 76.394,348.902 76.307 C 349.592 76.154,352.475 80.475,352.000 80.950 C 351.871 81.079,352.040 81.700,352.377 82.329 C 352.713 82.958,353.157 84.615,353.362 86.011 C 353.873 89.483,354.736 89.105,355.645 85.014 C 356.063 83.132,356.642 81.739,356.932 81.918 C 357.221 82.097,357.316 81.873,357.142 81.420 C 355.604 77.413,365.241 69.192,372.806 68.058 C 375.145 67.707,376.331 66.667,374.391 66.667 C 373.899 66.667,373.662 66.398,373.865 66.069 C 374.099 65.690,373.744 65.591,372.893 65.799 C 366.637 67.329,356.702 56.555,355.364 46.788 C 354.992 44.080,353.537 41.452,353.380 43.206 M173.212 45.503 C 172.299 45.717,167.802 46.456,163.218 47.147 C 158.635 47.837,151.459 49.271,147.272 50.333 C 143.085 51.395,139.335 52.185,138.939 52.088 C 138.543 51.992,138.427 52.026,138.681 52.164 C 138.936 52.303,136.608 53.268,133.509 54.309 C 126.616 56.625,119.616 59.505,110.979 63.578 C 105.516 66.154,104.275 66.548,103.507 65.948 C 102.697 65.317,102.678 65.348,103.349 66.205 C 104.030 67.075,103.721 67.383,100.476 69.074 C 95.752 71.535,95.739 71.540,96.273 70.675 C 96.574 70.188,96.501 70.078,96.056 70.353 C 95.686 70.582,95.499 70.956,95.640 71.184 C 95.781 71.412,92.859 73.487,89.148 75.796 C 85.437 78.105,80.103 81.635,77.295 83.640 C 74.487 85.645,71.941 87.132,71.638 86.945 C 71.335 86.757,71.255 86.875,71.460 87.207 C 71.814 87.780,70.313 88.791,69.397 88.597 C 69.159 88.547,69.030 88.720,69.109 88.982 C 69.347 89.769,57.485 98.927,56.787 98.495 C 56.427 98.273,56.303 98.356,56.506 98.684 C 56.705 99.005,55.258 100.607,53.290 102.243 C 51.323 103.879,49.138 105.744,48.436 106.389 C 47.727 107.039,46.857 107.373,46.480 107.139 C 46.078 106.891,45.951 106.965,46.170 107.318 C 46.374 107.648,42.470 111.619,37.494 116.143 C 28.259 124.541,9.926 142.781,4.146 149.324 L 0.935 152.957 2.777 154.678 C 3.789 155.625,4.465 156.647,4.278 156.949 C 4.091 157.252,4.192 157.429,4.502 157.342 C 5.374 157.098,13.778 165.070,13.383 165.765 C 13.191 166.103,13.252 166.182,13.517 165.940 C 14.113 165.399,17.321 168.372,16.891 169.068 C 16.721 169.343,16.924 169.498,17.342 169.411 C 17.761 169.324,18.032 169.595,17.946 170.014 C 17.859 170.433,18.015 170.635,18.293 170.463 C 18.897 170.089,21.403 172.616,20.982 173.175 C 20.821 173.388,20.869 173.427,21.088 173.260 C 21.687 172.806,28.161 179.419,27.758 180.073 C 27.566 180.383,27.666 180.478,27.981 180.284 C 28.727 179.822,32.340 183.546,31.763 184.182 C 31.520 184.449,31.659 184.472,32.071 184.235 C 32.572 183.946,35.243 186.156,40.118 190.895 C 48.326 198.873,60.687 210.110,70.977 218.949 C 74.770 222.207,77.809 225.096,77.730 225.368 C 77.651 225.640,77.804 225.797,78.070 225.718 C 78.336 225.639,81.245 227.659,84.535 230.207 C 87.825 232.755,92.497 236.246,94.917 237.965 C 97.336 239.685,99.223 241.242,99.109 241.427 C 98.994 241.611,99.213 241.770,99.594 241.779 C 100.825 241.809,117.223 252.124,116.794 252.599 C 116.566 252.851,116.702 252.872,117.097 252.645 C 118.112 252.061,121.264 254.066,121.264 255.296 C 121.264 255.860,121.515 256.322,121.821 256.322 C 122.127 256.322,122.223 255.920,122.035 255.428 C 121.797 254.809,123.028 255.195,126.042 256.687 C 128.435 257.871,130.238 259.089,130.050 259.394 C 129.862 259.698,129.983 259.778,130.319 259.570 C 131.588 258.785,132.779 259.799,132.142 261.121 C 131.570 262.307,131.581 262.313,132.426 261.259 C 133.288 260.185,133.385 260.194,136.912 261.676 C 143.277 264.350,152.362 267.301,161.049 269.517 C 165.703 270.705,169.412 271.778,169.290 271.901 C 169.168 272.025,169.885 272.157,170.884 272.194 C 171.884 272.231,175.417 272.677,178.736 273.185 C 188.345 274.656,200.259 275.368,208.178 274.944 C 214.007 274.631,215.700 274.714,216.511 275.351 C 217.436 276.077,217.457 276.058,216.740 275.144 C 216.026 274.233,216.117 274.138,217.700 274.138 C 232.107 274.138,263.688 263.801,281.913 253.121 C 283.308 252.304,284.755 251.824,285.129 252.056 C 285.532 252.305,285.658 252.231,285.438 251.875 C 284.969 251.115,292.393 246.400,293.236 246.921 C 293.577 247.132,293.692 247.040,293.492 246.716 C 293.293 246.393,294.998 244.889,297.283 243.374 C 303.491 239.258,309.694 234.474,318.966 226.650 C 328.310 218.765,328.660 218.452,336.069 211.357 C 339.221 208.339,341.659 206.427,342.048 206.668 C 342.418 206.896,342.551 206.822,342.351 206.499 C 341.890 205.753,345.042 202.719,345.678 203.297 C 345.944 203.538,345.998 203.450,345.799 203.100 C 345.294 202.213,354.374 193.472,355.242 194.009 C 355.637 194.253,355.774 194.186,355.566 193.850 C 355.105 193.105,357.687 190.652,358.324 191.230 C 358.589 191.470,358.647 191.389,358.454 191.050 C 358.040 190.321,373.177 175.093,373.748 175.663 C 373.962 175.878,374.138 175.730,374.138 175.335 C 374.138 174.940,375.108 173.700,376.293 172.580 C 377.478 171.459,379.896 169.158,381.666 167.464 C 383.436 165.771,384.988 164.447,385.114 164.521 C 385.241 164.595,385.282 164.550,385.206 164.421 C 384.880 163.870,386.395 162.689,386.990 163.030 C 387.350 163.235,387.447 163.186,387.207 162.922 C 386.967 162.658,387.336 161.841,388.026 161.106 L 389.281 159.770 387.961 159.770 C 378.377 159.770,359.719 164.644,349.389 169.846 C 347.170 170.963,345.042 171.698,344.660 171.479 C 344.278 171.260,344.157 171.292,344.391 171.550 C 344.625 171.808,342.169 173.725,338.933 175.809 C 335.697 177.893,332.995 179.468,332.928 179.310 C 332.862 179.152,332.474 179.441,332.065 179.951 C 330.600 181.782,325.169 185.627,324.571 185.257 C 324.235 185.050,324.127 185.149,324.331 185.479 C 324.830 186.288,319.730 190.415,318.880 189.890 C 318.485 189.646,318.368 189.728,318.592 190.091 C 318.800 190.428,317.935 191.524,316.669 192.527 C 315.404 193.529,314.360 194.134,314.350 193.870 C 314.341 193.607,314.075 193.833,313.760 194.373 C 313.420 194.956,312.786 195.226,312.197 195.037 C 311.452 194.798,311.397 194.855,311.974 195.268 C 312.544 195.677,310.140 197.771,302.578 203.454 C 294.479 209.541,292.300 210.929,291.843 210.287 C 291.383 209.641,291.330 209.669,291.573 210.433 C 291.931 211.559,285.984 215.803,284.947 215.161 C 284.583 214.937,284.465 215.023,284.674 215.361 C 286.346 218.067,243.141 238.300,240.353 236.117 C 239.484 235.436,239.453 235.453,240.088 236.268 C 240.841 237.234,238.911 237.886,227.586 240.496 C 212.303 244.017,189.113 244.383,172.541 241.364 C 164.568 239.912,153.215 236.909,152.968 236.188 C 152.862 235.878,152.530 235.777,152.230 235.962 C 149.652 237.555,105.914 215.848,107.273 213.649 C 107.497 213.287,107.374 213.211,106.970 213.461 C 106.593 213.694,105.207 213.158,103.856 212.256 C 97.200 207.816,94.311 205.543,94.641 205.009 C 94.841 204.685,94.739 204.585,94.413 204.786 C 93.429 205.394,80.768 195.724,81.339 194.800 C 81.520 194.506,81.332 194.392,80.921 194.545 C 79.984 194.895,75.720 190.924,76.200 190.148 C 76.394 189.835,76.203 189.650,75.776 189.737 C 74.544 189.990,72.334 188.531,72.777 187.759 C 72.995 187.379,72.966 187.256,72.714 187.484 C 71.559 188.528,36.489 155.287,37.173 153.798 C 37.334 153.447,40.181 150.704,43.501 147.701 C 54.555 137.701,61.473 132.103,62.211 132.559 C 62.547 132.767,62.655 132.667,62.451 132.338 C 61.950 131.526,63.571 130.255,64.431 130.786 C 64.826 131.030,64.970 130.969,64.768 130.643 C 64.368 129.995,72.162 123.372,73.326 123.372 C 73.745 123.372,73.980 123.197,73.848 122.984 C 73.453 122.346,76.983 120.029,77.687 120.465 C 78.062 120.696,78.181 120.612,77.968 120.268 C 77.503 119.516,81.405 116.473,82.202 116.965 C 82.524 117.164,82.716 117.091,82.629 116.802 C 82.318 115.767,97.763 104.851,98.498 105.586 C 98.692 105.780,98.851 105.648,98.851 105.292 C 98.851 104.351,103.867 101.560,104.669 102.056 C 105.075 102.306,105.198 102.231,104.975 101.869 C 104.411 100.958,112.331 96.309,113.611 96.800 C 114.060 96.972,114.275 96.866,114.088 96.564 C 113.645 95.847,121.689 91.794,122.526 92.311 C 122.899 92.541,123.006 92.447,122.782 92.084 C 122.427 91.510,123.744 90.762,124.936 90.861 C 125.216 90.884,125.604 90.658,125.798 90.360 C 126.636 89.066,142.062 83.606,143.414 84.125 C 143.908 84.314,144.175 84.247,144.006 83.974 C 143.838 83.702,145.312 83.041,147.281 82.505 C 153.442 80.830,153.338 80.826,151.224 82.688 C 150.104 83.675,148.893 84.269,148.351 84.097 C 147.679 83.884,147.618 83.947,148.134 84.320 C 148.672 84.709,148.403 85.265,147.066 86.529 C 123.077 109.207,115.772 154.110,131.111 184.604 C 132.495 187.355,132.469 187.818,131.026 186.127 L 129.868 184.770 130.867 186.593 C 131.416 187.595,132.110 188.264,132.410 188.079 C 132.720 187.887,132.791 188.167,132.576 188.729 C 132.367 189.271,132.432 189.570,132.720 189.392 C 133.444 188.944,136.955 195.231,136.444 196.059 C 136.201 196.451,136.278 196.576,136.628 196.359 C 137.440 195.858,138.711 197.479,138.179 198.339 C 137.917 198.764,137.997 198.878,138.388 198.636 C 139.117 198.185,140.400 200.213,139.779 200.834 C 139.553 201.060,139.650 201.159,139.995 201.054 C 140.339 200.948,141.830 202.284,143.307 204.023 C 147.147 208.543,154.160 214.556,159.366 217.791 C 161.831 219.323,163.641 220.688,163.389 220.826 C 163.137 220.963,163.257 220.996,163.656 220.898 C 165.068 220.552,167.156 221.937,166.937 223.075 C 166.822 223.676,166.976 224.015,167.281 223.826 C 167.586 223.638,167.659 223.199,167.444 222.851 C 167.178 222.422,167.406 222.366,168.153 222.678 C 186.872 230.498,208.299 231.554,225.575 225.508 C 228.736 224.402,231.755 223.456,232.285 223.407 C 232.815 223.357,233.147 223.152,233.022 222.949 C 232.662 222.368,235.644 221.207,236.394 221.637 C 236.765 221.849,236.882 221.816,236.653 221.563 C 236.424 221.310,238.105 219.820,240.389 218.253 C 244.983 215.098,252.444 208.204,251.736 207.766 C 251.488 207.612,249.773 208.007,247.925 208.642 C 234.417 213.290,215.414 213.545,200.575 209.279 C 192.235 206.881,179.407 200.664,180.189 199.399 C 180.371 199.104,180.183 198.991,179.771 199.146 C 178.607 199.586,170.886 192.747,166.697 187.565 C 160.383 179.756,155.595 169.333,153.114 157.997 C 151.807 152.023,151.284 136.838,152.363 136.155 C 152.802 135.877,152.880 135.646,152.538 135.641 C 151.141 135.621,153.585 123.793,156.505 116.439 C 160.328 106.810,173.046 90.364,176.243 90.915 C 176.810 91.012,177.279 90.766,177.286 90.368 C 177.312 88.916,186.014 83.861,193.044 81.215 C 207.734 75.686,227.433 75.536,244.468 80.824 C 249.540 82.398,266.186 90.187,265.803 90.807 C 265.674 91.016,265.902 91.188,266.311 91.188 C 267.126 91.188,273.563 94.741,273.563 95.191 C 273.563 95.345,273.360 95.345,273.112 95.191 C 272.863 95.038,272.660 95.428,272.660 96.058 C 272.660 97.101,272.723 97.118,273.363 96.243 C 274.122 95.205,280.741 99.080,280.068 100.169 C 279.904 100.434,280.248 100.570,280.833 100.469 C 281.476 100.359,281.834 100.588,281.739 101.048 C 281.652 101.467,281.828 101.657,282.130 101.470 C 282.821 101.043,287.060 103.873,287.095 104.784 C 287.109 105.156,287.442 105.392,287.833 105.310 C 288.822 105.101,301.818 114.900,301.416 115.551 C 301.237 115.841,301.460 115.937,301.912 115.763 C 302.374 115.586,303.207 116.047,303.810 116.814 C 304.401 117.566,305.144 118.292,305.460 118.429 C 305.776 118.566,305.973 118.863,305.898 119.089 C 305.822 119.314,306.094 119.371,306.501 119.215 C 306.909 119.058,308.328 119.933,309.656 121.159 C 310.983 122.384,312.069 123.265,312.069 123.117 C 312.069 122.969,312.454 123.167,312.925 123.558 C 313.395 123.949,313.614 124.537,313.411 124.867 C 313.207 125.196,313.297 125.306,313.611 125.113 C 314.335 124.665,316.789 126.348,316.380 127.011 C 316.211 127.284,316.376 127.694,316.746 127.923 C 317.166 128.182,317.265 128.089,317.009 127.675 C 316.236 126.425,317.210 127.017,322.825 131.215 C 329.773 136.408,334.354 139.510,338.649 141.928 C 340.535 142.989,341.792 144.049,341.578 144.397 C 341.366 144.739,341.473 144.837,341.822 144.622 C 342.804 144.015,345.602 145.482,344.700 146.131 C 344.182 146.504,344.272 146.561,345.002 146.325 C 345.573 146.140,347.254 146.599,348.738 147.344 C 358.456 152.221,372.945 155.163,383.333 154.369 C 392.817 153.644,401.543 151.293,397.006 150.686 C 391.290 149.921,374.389 143.517,375.091 142.382 C 375.311 142.026,375.190 141.946,374.798 142.189 C 373.157 143.203,348.904 127.745,349.817 126.267 C 350.016 125.947,349.944 125.827,349.658 126.000 C 349.070 126.358,346.647 124.471,335.140 114.697 C 330.701 110.927,327.226 107.590,327.417 107.281 C 327.608 106.972,327.489 106.889,327.154 107.096 C 326.337 107.601,315.981 98.920,316.466 98.136 C 316.690 97.774,316.572 97.692,316.178 97.935 C 315.330 98.460,308.515 93.164,309.009 92.365 C 309.211 92.039,309.093 91.950,308.744 92.165 C 308.037 92.602,295.402 83.544,295.402 82.599 C 295.402 82.266,295.238 82.157,295.036 82.358 C 294.461 82.934,291.321 80.445,291.749 79.752 C 291.972 79.392,291.863 79.298,291.490 79.529 C 291.137 79.747,289.392 78.959,287.612 77.777 C 284.862 75.951,284.534 75.557,285.435 75.158 C 286.277 74.785,286.216 74.743,285.137 74.951 C 283.542 75.259,277.396 71.463,277.974 70.527 C 278.185 70.186,278.056 70.112,277.667 70.352 C 277.294 70.583,274.710 69.459,271.853 67.824 C 265.724 64.316,250.345 56.903,246.175 55.445 C 243.923 54.658,243.293 54.191,243.553 53.498 C 243.834 52.746,243.741 52.710,243.021 53.295 C 242.316 53.866,241.315 53.731,237.834 52.594 C 219.100 46.475,185.039 42.738,173.212 45.503 M210.345 89.064 C 210.345 89.263,208.732 89.758,206.761 90.166 C 204.789 90.573,201.695 91.508,199.884 92.243 C 198.074 92.979,196.001 93.468,195.279 93.331 C 194.230 93.130,194.175 93.173,195.007 93.543 C 195.897 93.938,195.745 94.151,193.962 95.001 C 192.814 95.548,191.628 95.843,191.326 95.656 C 191.023 95.470,190.847 95.570,190.934 95.879 C 191.172 96.726,186.267 100.100,185.466 99.640 C 185.083 99.421,184.971 99.462,185.217 99.732 C 185.702 100.265,178.781 107.567,178.157 107.182 C 177.948 107.053,177.771 107.259,177.762 107.640 C 177.738 108.717,173.494 114.675,172.877 114.497 C 172.575 114.410,172.474 114.575,172.652 114.862 C 172.829 115.150,172.093 117.294,171.015 119.627 C 169.937 121.960,168.878 124.574,168.662 125.436 C 168.440 126.319,168.005 126.841,167.666 126.631 C 167.317 126.416,167.234 126.535,167.470 126.916 C 167.693 127.278,167.439 129.950,166.906 132.854 C 165.825 138.734,166.003 150.043,167.265 155.723 C 167.754 157.921,167.778 158.921,167.347 159.064 C 167.008 159.177,166.882 159.663,167.066 160.143 C 167.299 160.749,167.525 160.815,167.807 160.360 C 168.035 159.990,168.786 161.287,169.525 163.329 C 171.086 167.638,173.871 173.313,175.356 175.211 C 175.942 175.960,176.255 176.840,176.053 177.168 C 175.850 177.496,175.956 177.596,176.288 177.391 C 176.861 177.037,177.871 178.537,177.677 179.454 C 177.627 179.691,177.780 179.834,178.017 179.773 C 178.254 179.711,179.879 181.069,181.628 182.790 C 185.067 186.174,190.230 190.730,190.230 190.381 C 190.230 190.262,191.006 190.623,191.954 191.183 C 192.902 191.744,193.678 192.362,193.678 192.557 C 193.678 192.752,194.001 192.914,194.397 192.918 C 194.792 192.921,196.240 193.470,197.614 194.138 C 220.586 205.303,250.668 197.699,267.337 176.514 C 269.236 174.101,271.204 171.803,271.711 171.408 C 272.219 171.013,272.469 170.690,272.267 170.690 C 272.066 170.690,272.742 169.203,273.769 167.385 C 274.796 165.568,276.622 161.753,277.826 158.908 C 279.031 156.063,280.399 153.126,280.866 152.381 C 282.287 150.117,280.840 149.681,279.170 151.870 C 276.875 154.878,271.609 158.706,270.335 158.290 C 269.503 158.019,269.440 158.070,270.060 158.512 C 271.351 159.430,259.405 165.266,257.327 164.733 C 256.773 164.591,256.453 164.690,256.616 164.954 C 257.909 167.046,240.602 167.519,233.621 165.583 C 226.032 163.479,213.224 154.040,214.705 151.644 C 214.958 151.234,214.871 151.126,214.482 151.366 C 211.875 152.978,207.249 136.709,207.638 127.299 C 208.085 116.496,215.277 98.938,218.451 100.899 C 218.750 101.084,218.923 100.892,218.836 100.474 C 218.749 100.055,219.021 99.784,219.439 99.871 C 219.858 99.957,220.052 99.789,219.871 99.496 C 219.402 98.736,225.287 93.517,229.023 91.379 C 233.587 88.768,233.293 88.666,221.264 88.685 C 215.259 88.695,210.345 88.865,210.345 89.064 M260.170 102.692 C 260.011 102.950,259.596 104.713,259.248 106.609 C 258.511 110.621,255.785 116.444,254.741 116.236 C 254.346 116.157,254.088 116.386,254.167 116.746 C 254.418 117.890,249.468 121.220,246.083 122.185 C 241.861 123.388,241.376 123.902,243.996 124.393 C 249.011 125.334,256.159 129.707,255.498 131.429 C 255.326 131.877,255.428 132.094,255.725 131.910 C 256.021 131.727,256.534 132.081,256.863 132.696 C 257.302 133.516,257.271 133.892,256.748 134.104 C 256.290 134.289,256.361 134.408,256.948 134.437 C 258.162 134.498,259.002 136.473,259.497 140.429 C 259.934 143.929,260.681 144.638,261.254 142.098 C 262.838 135.062,264.170 131.975,266.747 129.365 C 268.932 127.152,273.244 125.057,276.870 124.447 C 279.905 123.937,279.594 123.309,275.864 122.414 C 274.282 122.035,272.989 121.500,272.989 121.225 C 272.989 120.950,272.665 120.839,272.270 120.978 C 268.938 122.148,259.367 108.143,262.577 106.793 C 263.395 106.449,263.386 106.398,262.500 106.362 C 261.947 106.340,261.455 105.869,261.407 105.316 C 261.359 104.763,261.291 104.005,261.256 103.633 C 261.167 102.689,260.519 102.127,260.170 102.692 M354.598 130.111 C 354.598 130.669,356.217 130.879,356.949 130.415 C 357.538 130.042,357.328 129.900,356.178 129.894 C 355.309 129.889,354.598 129.987,354.598 130.111 M314.142 190.564 C 313.602 191.970,313.720 192.110,314.655 191.174 C 315.632 190.197,315.757 189.655,315.004 189.655 C 314.722 189.655,314.334 190.064,314.142 190.564 M153.406 214.511 C 152.989 215.912,152.992 217.236,153.410 216.978 C 153.707 216.794,153.911 216.132,153.864 215.506 C 153.791 214.536,153.552 214.018,153.406 214.511 " stroke="none" fill="#000000" fill-rule="evenodd"></path></g></svg>